<svg width="520" height="520" viewBox="0 0 520 520" fill="none" xmlns="http://www.w3.org/2000/svg">
  <rect x="40" y="60" width="440" height="400" rx="48" fill="#FDF2F8"/>
  <circle cx="260" cy="230" r="110" fill="#FBCFE8"/>
  <circle cx="220" cy="210" r="12" fill="#2B1F3A"/>
  <circle cx="300" cy="210" r="12" fill="#2B1F3A"/>
  <path d="M220 250C235 270 255 280 280 280C305 280 325 270 340 250" stroke="#2B1F3A" stroke-width="10" stroke-linecap="round"/>
  <circle cx="170" cy="170" r="36" fill="#E9D5FF"/>
  <circle cx="350" cy="170" r="36" fill="#E9D5FF"/>
  <path d="M160 320C190 350 230 365 280 365C330 365 370 350 400 320" stroke="#7C3AED" stroke-width="12" stroke-linecap="round"/>
  <rect x="120" y="360" width="280" height="40" rx="20" fill="#E9D5FF"/>
  <circle cx="120" cy="120" r="10" fill="#7C3AED"/>
  <circle cx="400" cy="110" r="8" fill="#EC4899"/>
  <circle cx="420" cy="420" r="9" fill="#7C3AED"/>
</svg>
